<svg xmlns="http://www.w3.org/2000/svg" width="232.238" height="131.963"><style>.st0{fill:#b8a073}</style><switch><g><linearGradient id="SVGID_1_" gradientUnits="userSpaceOnUse" x1="-564.839" y1="-360.49" x2="-564.839" y2="-361.49"><stop offset="0" stop-color="#656565"/><stop offset=".618" stop-color="#1b1b1b"/><stop offset=".629" stop-color="#545454"/><stop offset=".983" stop-color="#3e3e3e"/></linearGradient><g id="文字"><path id="path3329_2_" class="st0" d="M52.734 51.738c-.55 2.001-3.909 2.469-7.478 1.053s-6.004-4.166-5.453-6.167c.55-2.001 3.909-2.469 7.478-1.053s5.968 4.166 5.453 6.167z"/><path id="path3329-3_2_" class="st0" d="M52.851 51.738c.527 2.001 3.862 2.539 7.455 1.182 3.593-1.358 6.074-4.073 5.559-6.074-.527-2.001-3.862-2.539-7.455-1.182-3.593 1.323-6.086 4.073-5.559 6.074z"/><path id="rect3349_2_" transform="matrix(.0085 -1 1 .0085 -6.344 110.75)" class="st0" d="M45.224 57.842h14.898v1.463H45.224z"/><path id="path3329_1_" class="st0" d="M180.271 39.368c-.515 1.826-3.581 2.259-6.846.96s-5.5-3.827-4.997-5.652c.515-1.826 3.581-2.259 6.846-.96 3.276 1.299 5.476 3.826 4.997 5.652z"/><path id="path3329-3_1_" class="st0" d="M180.376 39.38c.48 1.837 3.546 2.317 6.834 1.077 3.288-1.24 5.571-3.733 5.091-5.571-.48-1.837-3.546-2.317-6.834-1.077-3.289 1.206-5.571 3.722-5.091 5.571z"/><path id="rect3349_1_" transform="rotate(-89.513 180.22 45.627)" class="st0" d="M173.394 44.958h13.658v1.346h-13.658z"/><path d="M179.826 51.047c.655 0 1.03.468 1.03.936v17.484c0 .562-.468 1.03-1.03 1.03h-33.657c-.562 0-1.03-.562-1.03-1.217V1.311c0-.562.562-1.311 1.217-1.311h15.892c.562 0 .936.468.936 1.03v49.362c0 .374.281.655.562.655h16.08zM68.743 1.276c0-.644.644-1.276 1.405-1.276h21.673c.901 0 1.533.772 1.533 1.662v68.332c0 13.587-9.865 26.156-26.788 26.156-4.353 0-24.482-3.85-24.482-34.231 0-.901.515-1.287 1.287-1.404l17.952-.901c.772 0 1.404.515 1.533 1.533.386 5.126 1.791 8.59 4.108 8.59 1.159 0 1.791-.644 1.791-3.078V1.276h-.012zm29.655-.059c0-.655.468-1.217 1.03-1.217h15.799c.655 0 1.123.374 1.311 1.123l5.606 21.03c.187.749.468 1.123.655 1.123.281 0 .562-.374.562-1.217V1.217c0-.655.468-1.217 1.123-1.217h14.02c.749 0 1.217.655 1.217 1.311v67.572c0 .655-.374 1.217-1.03 1.217h-17.484c-.374 0-.936-.374-1.03-.936l-4.119-16.829c-.187-.936-.562-1.311-.843-1.311-.281 0-.468.374-.468 1.311v16.548a1.24 1.24 0 01-1.217 1.217H99.334c-.562 0-.936-.562-.936-1.311V1.217z" fill="#0e8a3b"/><path class="st0" d="M118.199 72.616c0-.07.07-.152.164-.152h2.493c.105 0 .176.094.176.187v7.841c0 1.556-1.135 3.008-3.078 3.008-.503 0-2.809-.445-2.809-3.932 0-.105.059-.152.152-.164l2.06-.105c.094 0 .164.059.176.176.047.585.211.983.468.983.129 0 .211-.07.211-.351v-7.49h-.013zm3.499 5.032c-.105 0-.105-.07-.105-.761 0-1.159.901-2.212 2.422-2.212 1.615 0 2.516 1.018 2.516 2.165v3.991c0 .117.047.117.363.117.059 0 .105.059.105.117v.913c0 .726-.632 1.58-1.451 1.58-.679 0-.936-.222-1.159-.562-.07-.105-.117-.129-.152-.129-.012 0-.07.035-.164.152a1.283 1.283 0 01-1.03.503c-.62 0-1.533-.515-1.533-1.989v-1.088c0-1.159.784-1.779 1.592-2.118 1.077-.456 1.135-.62 1.135-1.135 0-.211-.094-.304-.222-.304-.234 0-.234.094-.234.761 0 .07-.059.117-.129.117l-1.954-.118zm2.551 2.071c0-.059-.023-.105-.094-.117a.455.455 0 00-.386.456v1.088c0 .176.117.246.234.246s.234-.07.234-.246v-1.428h.012zm5.115-5.044c.059 0 .211.363.281.363.023 0 .07-.023.164-.105.222-.164.527-.269.866-.269.737 0 1.58.515 1.58 2.926v3.078c0 2.235-.925 2.82-1.673 2.82-.339 0-.62-.117-.843-.304-.07-.07-.105-.105-.129-.105-.012 0-.047.023-.047.117v2.352c0 .07-.059.152-.129.152h-1.919a.13.13 0 01-.129-.129V74.804c0-.07.07-.129.129-.129h1.849zm.198 6.121c0 .222.117.386.281.386.129 0 .187-.129.187-.293v-3.698c0-.07 0-.269-.187-.269a.334.334 0 00-.164.059.388.388 0 00-.117.281v3.534zm3.266-3.148c-.105 0-.105-.07-.105-.761 0-1.159.901-2.212 2.434-2.212 1.615 0 2.516 1.018 2.516 2.165v3.991c0 .117.047.117.363.117.059 0 .105.059.105.117v.913c0 .726-.632 1.58-1.463 1.58-.679 0-.936-.222-1.159-.562-.07-.105-.117-.129-.152-.129-.012 0-.07.035-.164.152a1.283 1.283 0 01-1.03.503c-.62 0-1.533-.515-1.533-1.989v-1.088c0-1.159.784-1.779 1.592-2.118 1.077-.456 1.135-.62 1.135-1.135 0-.211-.094-.304-.222-.304-.234 0-.234.094-.234.761 0 .07-.059.117-.129.117l-1.954-.118zm2.539 2.071a.114.114 0 00-.094-.117.455.455 0 00-.386.456v1.088c0 .176.117.246.234.246s.234-.07.234-.246v-1.428h.012zm3.253 3.78c-.059 0-.117-.059-.117-.152v-8.578c0-.059.047-.105.105-.105h1.837c.105 0 .222.62.281.62.012 0 .047-.012.105-.094.269-.339.527-.527 1.147-.527.726 0 1.439.562 1.439 1.556v7.197c0 .047-.023.07-.07.07h-2.036a.104.104 0 01-.105-.105v-6.004c0-.222-.117-.293-.234-.293s-.234.07-.234.293v6.039c0 .059-.023.094-.105.094h-2.013v-.011zm6.858-10.837c0-.105.07-.187.164-.187h2.493c.105 0 .176.059.211.176l.878 3.312c.035.117.07.176.105.176.047 0 .094-.059.094-.187v-3.277c0-.105.07-.187.176-.187h2.212c.117 0 .187.105.187.211v10.638c0 .105-.059.187-.164.187h-2.75a.184.184 0 01-.164-.152l-.644-2.645c-.023-.152-.094-.211-.129-.211-.047 0-.07.059-.07.211v2.61a.193.193 0 01-.187.187h-2.235c-.094 0-.152-.094-.152-.211V72.662h-.025zm7.186 4.986c-.105 0-.105-.07-.105-.761 0-1.159.901-2.212 2.422-2.212 1.615 0 2.516 1.018 2.516 2.165v3.991c0 .117.047.117.363.117.059 0 .105.059.105.117v.913c0 .726-.632 1.58-1.451 1.58-.679 0-.936-.222-1.159-.562-.07-.105-.117-.129-.152-.129-.012 0-.07.035-.164.152a1.283 1.283 0 01-1.03.503c-.62 0-1.533-.515-1.533-1.989v-1.088c0-1.159.784-1.779 1.592-2.118 1.077-.456 1.135-.62 1.135-1.135 0-.211-.094-.304-.222-.304-.234 0-.234.094-.234.761 0 .07-.059.117-.129.117l-1.954-.118zm2.551 2.071c0-.059-.023-.105-.094-.117a.455.455 0 00-.386.456v1.088c0 .176.117.246.234.246s.234-.07.234-.246v-1.428h.012zm3.335-2.598c0-.059-.023-.105-.094-.105-.304 0-.339 0-.339-.105v-2.153c0-.047.023-.094.059-.094.339 0 .363 0 .363-.105V73.26c0-.059.047-.105.105-.105h2.118c.152 0 .152.035.152.129v1.24c0 .094.047.129.117.129.456 0 .503 0 .503.105v2.153a.104.104 0 01-.105.105c-.456 0-.515 0-.515.117v3.874c0 .059.047.117.094.117.515 0 .573 0 .573.094 0 .843 0 2.294-1.498 2.294-.878 0-1.533-.55-1.533-2.305v-4.086zm3.476-2.305c0-.094.047-.152.117-.152h1.849c.07 0 .117.047.117.117v5.617c0 .222.129.293.234.293.117 0 .234-.07.234-.293v-5.617c0-.07.047-.117.105-.117h1.919c.07 0 .129.047.129.105v8.625c0 .059-.047.105-.117.105h-1.732c-.094 0-.176-.515-.269-.515-.023 0-.07.035-.164.117-.269.246-.515.398-1.042.398-.609 0-1.381-.503-1.381-1.533l.001-7.15zm5.301-.024c0-.07.035-.117.094-.117h2.071c.094 0 .187.468.269.468.035 0 .059-.035.094-.105.152-.351.468-.363.925-.363.047 0 .094.047.094.105v2.118c0 .059-.035.105-.105.105-.749 0-1.042.398-1.042 1.592v4.786a.13.13 0 01-.129.129h-2.153c-.059 0-.105-.047-.105-.117v-8.602h-.013zm4.12 2.856c-.105 0-.105-.07-.105-.761 0-1.159.901-2.212 2.434-2.212 1.615 0 2.516 1.018 2.516 2.165v3.991c0 .117.047.117.363.117.059 0 .105.059.105.117v.913c0 .726-.632 1.58-1.463 1.58-.679 0-.936-.222-1.159-.562-.07-.105-.117-.129-.152-.129-.012 0-.07.035-.164.152a1.283 1.283 0 01-1.03.503c-.62 0-1.533-.515-1.533-1.989v-1.088c0-1.159.784-1.779 1.592-2.118 1.077-.456 1.135-.62 1.135-1.135 0-.211-.094-.304-.222-.304-.234 0-.234.094-.234.761 0 .07-.059.117-.129.117l-1.954-.118zm2.539 2.071a.114.114 0 00-.094-.117.455.455 0 00-.386.456v1.088c0 .176.117.246.234.246s.234-.07.234-.246v-1.428h.012zm3.253 3.78c-.059 0-.117-.07-.117-.129V72.417c0-.129.059-.176.164-.176h2.071c.105 0 .152.047.152.129v11.012c0 .059-.059.117-.117.117h-2.153zm-42.644 11.235c.105 0 .164.07.164.152v2.738a.16.16 0 01-.164.164h-5.266c-.094 0-.164-.094-.164-.187V86.963c0-.094.094-.211.187-.211h2.493c.094 0 .152.07.152.164v7.724c0 .059.047.105.094.105h2.504v-.011zm.772-2.809c-.105 0-.105-.07-.105-.761 0-1.159.901-2.212 2.422-2.212 1.615 0 2.516 1.018 2.516 2.165v3.991c0 .117.047.117.363.117.059 0 .105.059.105.117v.913c0 .726-.632 1.58-1.451 1.58-.679 0-.936-.222-1.159-.562-.07-.105-.117-.129-.152-.129-.012 0-.07.035-.164.152a1.283 1.283 0 01-1.03.503c-.62 0-1.533-.515-1.533-1.989v-1.088c0-1.159.784-1.779 1.592-2.118 1.077-.456 1.135-.62 1.135-1.135 0-.211-.094-.304-.222-.304-.234 0-.234.094-.234.761 0 .07-.059.117-.129.117l-1.954-.118zm2.551 2.071c0-.059-.023-.105-.094-.117a.455.455 0 00-.386.456v1.088c0 .176.117.246.234.246s.234-.07.234-.246v-1.428h.012zm3.265 3.78c-.059 0-.129-.059-.129-.129V86.635c0-.07.059-.117.129-.117h1.919c.07 0 .129.07.129.152v2.575c0 .094.023.117.047.117.035 0 .059-.035.129-.105.222-.222.503-.304.843-.304.749 0 1.673.585 1.673 2.82v3.078c0 2.411-.843 2.926-1.58 2.926-.339 0-.644-.105-.866-.269-.094-.07-.129-.105-.164-.105-.07 0-.222.363-.281.363h-1.849v.01zm2.048-2.598c0 .129.047.222.117.281.035.047.105.07.164.07.187 0 .187-.187.187-.281V91.55c0-.152-.059-.281-.187-.281-.164 0-.281.164-.281.386v3.523zm3.125-3.943c0-1.358 1.018-2.282 2.528-2.282 1.521 0 2.528.913 2.528 2.352v4.178c0 1.369-1.018 2.294-2.528 2.294-1.498 0-2.528-.936-2.528-2.294v-4.248zm2.294 3.873c0 .176.07.293.234.293s.234-.117.234-.293v-3.499c0-.164-.094-.293-.234-.293-.164 0-.234.129-.234.293v3.499zm3.265-6.038c0-.07.035-.117.094-.117h2.071c.094 0 .187.468.269.468.035 0 .059-.035.094-.105.152-.351.468-.363.925-.363.047 0 .094.047.094.105v2.118c0 .059-.035.105-.105.105-.749 0-1.042.398-1.042 1.592v4.786a.13.13 0 01-.129.129h-2.153c-.059 0-.105-.047-.105-.117V89.07h-.013zm4.119 2.855c-.105 0-.105-.07-.105-.761 0-1.159.901-2.212 2.434-2.212 1.615 0 2.516 1.018 2.516 2.165v3.991c0 .117.047.117.363.117.059 0 .105.059.105.117v.913c0 .726-.632 1.58-1.463 1.58-.679 0-.936-.222-1.159-.562-.07-.105-.117-.129-.152-.129-.012 0-.07.035-.164.152a1.283 1.283 0 01-1.03.503c-.62 0-1.533-.515-1.533-1.989v-1.088c0-1.159.784-1.779 1.592-2.118 1.077-.456 1.135-.62 1.135-1.135 0-.211-.094-.304-.222-.304-.234 0-.234.094-.234.761 0 .07-.059.117-.129.117l-1.954-.118zm2.551 2.071a.114.114 0 00-.094-.117.455.455 0 00-.386.456v1.088c0 .176.117.246.234.246s.234-.07.234-.246v-1.428h.012zm3.336-2.598c0-.059-.023-.105-.094-.105-.304 0-.339 0-.339-.105v-2.153c0-.047.023-.094.059-.094.339 0 .363 0 .363-.105v-1.299c0-.059.047-.105.105-.105h2.118c.152 0 .152.035.152.129v1.24c0 .094.047.129.117.129.456 0 .503 0 .503.105v2.13a.104.104 0 01-.105.105c-.456 0-.515 0-.515.117v3.874c0 .059.047.117.094.117.515 0 .573 0 .573.094 0 .843 0 2.294-1.498 2.294-.878 0-1.533-.55-1.533-2.305v-4.063zm3.382-.163c0-1.358 1.018-2.282 2.528-2.282s2.528.913 2.528 2.352v4.178c0 1.369-1.018 2.294-2.528 2.294-1.498 0-2.528-.936-2.528-2.294v-4.248zm2.293 3.873c0 .176.07.293.234.293s.234-.117.234-.293v-3.499c0-.164-.094-.293-.234-.293-.164 0-.234.129-.234.293v3.499zm3.277-6.038c0-.07.023-.117.094-.117h2.071c.094 0 .187.468.269.468.023 0 .059-.035.094-.105.152-.351.468-.363.925-.363.047 0 .094.047.094.105v2.118c0 .059-.023.105-.105.105-.749 0-1.042.398-1.042 1.592v4.786a.13.13 0 01-.129.129h-2.153c-.059 0-.105-.047-.105-.117V89.07h-.013zm3.733-.012c0-.047.012-.105.07-.105h2.036c.07 0 .105.047.117.105l.328 2.212c.012.059.023.117.059.117.012 0 .047-.059.059-.117l.41-2.235c.012-.035.035-.07.094-.07h1.943c.059 0 .105.047.094.059l-2.071 10.86c-.012.059-.059.117-.129.117h-1.884c-.07 0-.117-.059-.105-.129l.679-3.71a.689.689 0 000-.222l-1.7-6.882z"/><path d="M7.577 117.996c-.952-.973-4.899-2.738-6.308-2.797l.536-1.19c.277.118.357.139 1.19.317 2.143.416 3.967.972 5.713 1.705l-1.131 1.965zm-4.741 4.721c.179.02.278.02.377.02 1.547 0 4.146-.595 5.852-1.349 2.837-1.249 5.078-3.353 6.487-6.13.456-.912.734-1.705.813-2.301l1.111.516a5.765 5.765 0 00-.396.893c-2.003 6.249-5.475 9.165-12.318 10.355a7.915 7.915 0 00-1.21.316l-.716-2.32zm6.566-8.987c-.833-.951-3.174-2.34-5.039-3.015-.079-.04-.159-.06-.258-.099a4.858 4.858 0 00-.813-.199l.615-1.111c.178.1.437.18.893.299 2.103.516 4.126 1.249 5.733 2.122l-1.131 2.003zm6.685-5.574v3.115h-1.25v-3.115h1.25zm2.242 0v3.115h-1.25v-3.115h1.25zm5.282 5.416a6.543 6.543 0 00-.218-1.012l2.063-.238c0 .377.02.615.06 1.012l.297 2.32 7.697-1.209c-.159 2.539-1.646 4.82-3.848 5.931a3.236 3.236 0 00-.833.595l-.635-.991c1.19-.04 2.856-2.44 3.015-4.305l-5.276.893.992 7.577c.06.396.099.655.218 1.012l-2.063.278c.02-.278.02-.337.02-.377 0-.198 0-.198-.06-.655l-.992-7.537-2.896.496a5.256 5.256 0 00-1.032.277l-.179-1.19c.179.021.337.021.417.021.278 0 .357 0 .694-.061l2.876-.455-.317-2.382zm12.383 10.037c.793-.219 2.52-2.578 3.293-4.522 1.071-2.579 1.785-5.832 1.746-7.975l2.579.575c-.139.357-.198.575-.278 1.131-.873 5.297-2.658 8.648-5.832 10.97a3.507 3.507 0 00-.774.733l-.734-.912zm15.85.536c-.02-.277-.08-.714-.179-1.309-.793-4.008-3.353-10.117-4.642-11.068l1.19-.873c.139.277.317.535.813 1.17 2.043 2.639 3.65 5.772 4.979 9.72.139.496.258.813.437 1.151l-2.598 1.209zm2.856-14.204c0 1.27-1.052 2.321-2.341 2.321-1.25 0-2.301-1.071-2.301-2.341 0-1.25 1.051-2.301 2.341-2.301 1.23.001 2.301 1.072 2.301 2.321zm-3.808 0c0 .814.674 1.488 1.487 1.488.813 0 1.488-.674 1.488-1.488a1.5 1.5 0 00-1.488-1.487c-.813 0-1.487.675-1.487 1.487zm11.412 5.832c-.933-1.487-4.443-4.521-5.436-4.721l.773-1.111c.357.299.496.377 1.091.635 1.21.557 3.214 1.766 4.345 2.619.356.297.674.516.873.635l-1.646 1.943zm-4.742 6.844c3.472.02 7.935-1.646 10.057-3.748 1.785-1.588 3.313-4.226 3.591-6.17l1.15.516c-.277.477-.317.596-.496 1.25-1.566 5.713-5.475 8.946-12.278 10.156a7.03 7.03 0 00-1.27.357l-.754-2.361zm25.674-12.476c0-.396-.02-.635-.1-1.052h2.44c-.1.496-.119.734-.119 1.052v3.789h5.673c.338 0 .596-.021 1.032-.119v1.309c-.477-.1-.675-.119-1.032-.119h-5.673v.654c.06 5.258-1.964 7.836-7.399 9.363-.436.1-.753.219-.991.377l-.477-1.131c.317 0 .635-.059 1.071-.198 2.262-.654 4.345-2.499 5.039-4.463.376-1.012.535-2.222.535-3.948V115h-7.002c-.338 0-.615.04-1.052.119v-1.309c.437.079.714.119 1.052.119h7.002v-3.788zm19.704 1.963c-1.527.139-3.749.277-5.098.298-.377 0-.754.059-1.071.119l-.278-1.131c.437.02.774.039.913.039.158 0 .218 0 .416-.02 3.571-.238 7.558-1.012 9.998-1.904a6.084 6.084 0 001.071-.535l1.21 2.122-.079.02c-.694.099-.813.14-1.171.218-.952.199-2.341.417-3.789.576v4.225h5.733c.337 0 .654-.039 1.11-.119v1.27a5.276 5.276 0 00-1.11-.099h-5.753c-.179 4.503-2.122 6.665-7.2 8.014l-.1.021c-.595.178-.675.218-.893.356l-.496-1.171c.298 0 .635-.059 1.15-.197 1.727-.517 3.075-1.409 4.126-2.719.833-1.031 1.21-2.34 1.29-4.304h-7.062c-.456 0-.714.02-1.11.099v-1.27c.416.08.773.119 1.11.119h7.082v-4.027zm14.428 3.73c-.298 0-.596.039-.973.139v-1.211c.338.1.675.14.973.14h7.756l-.754 8.152h2.381c.297 0 .614-.04.972-.118v1.209a3.392 3.392 0 00-.972-.139h-11.168c-.338 0-.615.04-.973.139v-1.209c.357.078.655.118.973.118h6.783l.655-7.22h-5.653zm14.247-.477c-.337 0-.675.039-1.11.119v-1.289a5.75 5.75 0 001.11.119h14.183c-.495 6.188-4.086 9.719-11.049 10.83-.377.06-.773.179-1.012.317l-.396-1.21c1.567.06 4.305-.992 5.951-2.281 2.182-1.606 3.491-3.868 3.849-6.605h-11.526zm12.795-4.304c-.477-.079-.715-.119-1.111-.119h-10.255c-.338 0-.675.04-1.111.119v-1.289c.396.079.773.119 1.111.119h10.255c.357 0 .675-.04 1.111-.119v1.289zm3.536 12.894c.952-.357 1.964-1.311 2.718-2.56.972-1.666 1.27-3.153 1.27-6.13v-3.67c0-.356-.04-.654-.119-1.11h2.36a5.934 5.934 0 00-.119 1.11v3.67c.021 4.741-1.21 7.102-4.642 9.025-.356.219-.595.397-.813.615l-.655-.95zm8.887-13.191c0-.338-.039-.635-.119-1.111h2.36a6.272 6.272 0 00-.118 1.111v11.188c3.094-.773 6.188-4.106 6.823-7.32l1.091.556c-.158.258-.297.556-.377.694-.02.04-.039.1-.06.158l-.118.417c-1.528 4.562-4.702 7.319-9.482 8.212v-13.905zm18.633 12.774c0 .376.04.833.119 1.289-.635-.06-.813-.079-1.27-.079h-3.094c-.456 0-.635.02-1.27.079.119-.614.139-.872.139-1.646v-4.205a18.654 18.654 0 01-1.27 2.202l-.356.714-.854-.536.437-.574c1.329-3.115 2.222-7.023 2.381-10.573h-.854c-.476 0-.694.02-1.31.099v-1.21c.576.079.873.1 1.31.1h4.86c.476 0 .733-.021 1.329-.1v1.21l-.219-.02-.277-.039a8.613 8.613 0 00-.833-.04h-1.904c-.179 1.805-.477 3.411-.913 4.899h2.381c.714 0 .952 0 1.587-.08-.1.635-.119.894-.119 1.646v6.864zm-1.904-7.419h-1.627v7.617h1.627v-7.617zm10.731-.119h1.012c.456 0 .754-.02 1.31-.1v1.171c-.517-.04-.694-.06-1.032-.06h-1.289v7.855c0 .436.02.555.119 1.309h-2.36c.02-.139.02-.178.079-.496.04-.316.06-.516.06-.812v-7.855h-2.023c-.06 4.186-1.071 6.625-3.67 8.906l-.556.556-.753-.754.614-.536c1.587-2.162 2.183-4.344 2.222-8.172h-.773c-.575 0-.773 0-1.31.06v-1.171c.596.08.854.1 1.31.1h.773v-5.832h-.317c-.437 0-.654.02-1.27.1v-1.211c.596.08.873.1 1.27.1h7.121c.457 0 .754-.02 1.31-.1v1.211l-.218-.02-.278-.04a8.142 8.142 0 00-.813-.04h-.535v5.831zm-4.126-5.832v5.832h2.023v-5.832h-2.023zm12.365 9.422c-.496 0-.694.021-1.329.1v-1.229c.773.118.912.118 1.329.118h3.967c.079-.516.1-.793.139-1.566l-.079-1.071 2.52.159-.139 1.051c-.04.793-.08 1.092-.119 1.428h3.332c.714.021 1.012 0 1.627-.099-.1.655-.119.952-.119 1.745v3.096c0 .574.119.635 1.21.635 1.17 0 1.527-.119 1.646-.536.119-.357.158-.774.238-1.745l-.04-1.052 1.091.277-.06.754c.04 1.527.04 1.527.04 1.706 0 1.17-.06 1.547-.337 1.885-.397.476-1.131.635-3.016.635-.337 0-.694 0-1.17-.04-1.369-.079-1.825-.516-1.825-1.785v-4.464h-2.816c-.794 3.254-3.016 5.218-7.221 6.447l-.734.317-.516-.972.813-.219c2.995-1.209 4.661-2.975 5.336-5.574h-3.768zm.119-8.291v1.289c0 .417.02.516.118 1.289h-2.459l.039-.258.021-.237c.039-.278.06-.477.06-.794v-.833c0-.694-.021-.952-.119-1.547.595.06.872.079 1.566.079h5.892v-1.15c0-.258-.02-.496-.039-.734l-.06-.396-.021-.179h2.539c-.099.754-.119.894-.119 1.31v1.15h6.011c.714 0 .952 0 1.567-.079a8.23 8.23 0 00-.119 1.527v.159c0 .436.02.555.119 1.289h-2.44l.021-.1.039-.377c.04-.238.06-.477.06-.793v-.615h-3.63v3.094c0 .438.198.517 1.329.517.952 0 1.726-.079 1.924-.179.198-.119.258-.297.298-.773l-.02-.516 1.031.238-.06.416.04.317c0 .079 0 .218.02.417v.356l.02.258c0 .437-.218.774-.595.952-.417.179-1.229.238-2.956.238-1.745 0-2.301-.079-2.717-.396-.338-.258-.477-.654-.477-1.35v-3.59h-6.883zm5.356 1.131l-.516.773c-.992 1.805-2.777 3.135-5.157 3.848l-.715.357-.555-.893.773-.258c1.706-.813 3.174-2.4 3.67-3.928l.198-.833 2.302.934zm16.728 6.427c-.099 2.678-.872 4.761-2.439 6.665l-.377.674-.893-.574.437-.576c.853-1.864 1.15-3.67 1.15-6.803v-3.829c0-.794-.02-.952-.119-1.626.595.059.912.078 1.646.078h4.305c.733 0 1.031-.02 1.646-.078-.1.555-.119.893-.119 1.626v3.234c0 .377.04.833.119 1.289-.694-.079-.773-.079-1.646-.079h-3.71zm5.515-8.669l-.277-.039a8.492 8.492 0 00-.813-.04h-6.05c-.496 0-.694.021-1.329.1v-1.21c.615.079.893.099 1.329.099h6.05c.456 0 .754-.02 1.31-.099v1.21l-.22-.021zm-2.38 7.657v-3.968h-3.114v3.968h3.114zm5.435-2.103c0 4.205-.932 6.963-3.312 9.818l-.456.635-.893-.674.516-.516c1.508-2.639 2.063-5.138 2.063-9.185v-4.503c0-.754 0-.812-.04-1.428l-.02-.357c.356.06.595.08.872.08 1.369 0 3.829-.615 5.376-1.33l.714-.436 1.527 2.062-.932.158c-1.389.298-3.491.516-5.416.557v3.887h5.396c.457 0 .715-.02 1.25-.119v1.23l-.119-.02-.317-.04a8.457 8.457 0 00-.813-.04h-1.031v9.402c0 .438.02.517.119 1.31h-2.321l.021-.099.039-.396c.04-.258.06-.496.06-.814v-9.402h-2.281v.22z"/></g></g></switch></svg>